<?xml version="1.0" encoding="UTF-8"?>
<svg version="1.1" xmlns="http://www.w3.org/2000/svg" width="1254" height="1254">
<path d="M0 0 C413.82 0 827.64 0 1254 0 C1254 413.82 1254 827.64 1254 1254 C840.18 1254 426.36 1254 0 1254 C0 840.18 0 426.36 0 0 Z " fill="none" transform="translate(0,0)"/>
<path d="M0 0 C1.6365402 -0.00302963 3.27307899 -0.00692312 4.90961534 -0.01159257 C9.35518265 -0.02177704 13.80066846 -0.01971544 18.24624217 -0.01541197 C23.06100537 -0.01292716 27.87574982 -0.02198056 32.69050598 -0.02944946 C42.10371304 -0.04215045 51.51689152 -0.04399589 60.93010571 -0.0416492 C68.58826738 -0.03986057 76.24642043 -0.04162732 83.90458107 -0.04587364 C85.54432584 -0.04676643 85.54432584 -0.04676643 87.21719677 -0.04767724 C89.4385336 -0.0488891 91.65987043 -0.05010323 93.88120726 -0.05131962 C114.67878112 -0.06217762 135.47633872 -0.06004103 156.27391348 -0.05393478 C175.25987876 -0.04876821 194.2457927 -0.06001731 213.23174783 -0.07903299 C232.77031151 -0.0984507 252.30885095 -0.10666044 271.84742433 -0.10290974 C282.79924193 -0.10100353 293.75101586 -0.10342842 304.70282555 -0.11762428 C314.02729349 -0.12958937 323.35169087 -0.13088592 332.67615988 -0.11883412 C337.42424912 -0.11298098 342.17220964 -0.11174601 346.92028999 -0.12383652 C372.75273956 -0.18489036 396.93969403 -0.14020483 421.03205872 10.26069641 C422.12792297 10.71919983 422.12792297 10.71919983 423.2459259 11.18696594 C439.64926964 18.10540797 453.33816286 27.86416854 466.03205872 40.26069641 C467.2134845 41.34930969 467.2134845 41.34930969 468.41877747 42.45991516 C494.33008531 66.92416916 506.73939409 104.05126069 508.13967133 138.94208908 C508.29986867 145.66656318 508.26277284 152.39042024 508.22737122 159.11616516 C508.22362936 161.24135198 508.22078795 163.36654056 508.21879578 165.49172974 C508.2112515 171.01696245 508.19168503 176.54208576 508.16938782 182.067276 C508.14872808 187.73264589 508.13975154 193.39803389 508.12971497 199.06343079 C508.10842806 210.1292334 508.07440707 221.19495572 508.03205872 232.26069641 C506.83482577 232.26216162 506.83482577 232.26216162 505.6134063 232.26365644 C458.30744713 232.32192939 411.00153402 232.3957269 363.69563157 232.48968269 C358.01545646 232.50095085 352.33528111 232.5120893 346.65510559 232.52314758 C345.5242857 232.52535127 344.3934658 232.52755495 343.22837864 232.52982541 C324.91870526 232.56519706 306.60903192 232.59006195 288.29933704 232.61104343 C269.51167524 232.63280651 250.72405777 232.6658618 231.93643367 232.70939797 C220.34363073 232.73590588 208.75088304 232.75360761 197.1580513 232.76004245 C189.20823915 232.76529894 181.25849651 232.78152478 173.30872162 232.80636207 C168.72224538 232.82036801 164.13589356 232.82955123 159.54939461 232.82570457 C155.34707111 232.82228703 151.14501304 232.83270125 146.94274388 232.85393193 C145.42576142 232.85918751 143.9087513 232.85944769 142.39176919 232.85409204 C127.27469459 232.80617492 115.11152369 236.07960793 103.68830872 246.45210266 C94.85249075 256.10064917 90.24451869 267.99457973 90.71174622 281.03022766 C92.16385371 295.67526301 98.01179101 307.4517718 109.03205872 317.26069641 C112.90638026 319.90097479 116.91645305 322.13400571 121.08430481 324.26167297 C123.119525 325.30555879 125.13309672 326.38416428 127.14533997 327.47163391 C135.79856537 332.13306187 144.55815912 336.57038463 153.3631134 340.93647766 C158.69063145 343.57976872 164.01447481 346.23039522 169.33641052 348.88490295 C171.29362129 349.86031091 173.25204621 350.83324882 175.21052551 351.80610657 C180.78149106 354.5808445 186.31984861 357.38703265 191.76252747 360.40913391 C196.10734955 362.81093244 200.53232996 364.87576478 205.06575012 366.89302063 C210.36133441 369.33465546 215.51076609 372.06599658 220.68052673 374.76097107 C234.41763123 381.91725927 248.23433304 388.90879037 262.09455872 395.82319641 C262.92547028 396.23772064 263.75638184 396.65224487 264.61247253 397.07933044 C270.84258663 400.18639888 277.07340512 403.29206982 283.30705261 406.39204407 C285.48152777 407.47353313 287.65528642 408.5564509 289.82893372 409.63960266 C290.46738724 409.95659622 291.10584076 410.27358978 291.76364136 410.60018921 C296.4811592 412.95310665 301.10832124 415.44542395 305.70002747 418.03413391 C307.96506077 419.28526684 307.96506077 419.28526684 310.20857239 420.08833313 C313.78351386 421.57271436 317.13786669 423.40888247 320.53987122 425.24507141 C329.26949615 429.89690913 338.11097061 434.30584898 346.98258209 438.6781311 C349.35962398 439.850101 351.73547838 441.02444499 354.11097717 442.19953918 C363.9868355 447.08546174 363.9868355 447.08546174 373.87532043 451.945755 C396.5850473 463.07535428 419.05537833 474.20676338 438.03205872 491.26069641 C438.59554016 491.76536438 439.15902161 492.27003235 439.73957825 492.78999329 C477.49323803 526.78514583 503.10845326 569.4217465 514.03205872 619.26069641 C514.24088684 620.14225403 514.44971497 621.02381165 514.66487122 621.93208313 C521.53653345 651.64223669 520.85557263 686.62298518 514.03205872 716.26069641 C513.66448328 718.01815629 513.2985981 719.77597053 512.93440247 721.53413391 C510.82819981 731.30793235 508.03731985 740.85351603 505.03205872 750.38569641 C504.71204895 751.40470032 504.39203918 752.42370422 504.06233215 753.47358704 C501.84193363 760.31626826 499.11599699 766.76687516 496.03205872 773.26069641 C495.58829895 774.2226593 495.14453918 775.18462219 494.68733215 776.17573547 C482.96056072 801.59340896 469.14250932 825.25741076 449.62971497 845.54585266 C447.50236207 847.76917637 445.50258322 850.02581525 443.53205872 852.38569641 C417.90643193 881.83973009 379.83915031 902.83358313 343.03205872 914.26069641 C341.91419983 914.61188538 341.91419983 914.61188538 340.77375793 914.97016907 C331.84446091 917.73263957 322.84606609 919.80778375 313.65705872 921.51069641 C312.77807922 921.67400452 311.89909973 921.83731262 310.9934845 922.00556946 C299.17435743 924.08082685 287.39636319 924.40922778 275.42466736 924.40113831 C273.87493945 924.40372759 272.32521221 924.4067423 270.77548587 924.41014171 C266.54667486 924.41814889 262.31788087 924.41999774 258.08906317 924.42073917 C253.51620887 924.42260077 248.94336318 924.43015359 244.37051392 924.43687439 C234.38452984 924.45041362 224.3985498 924.45647557 214.41255808 924.46088505 C208.16755877 924.46365502 201.92256099 924.46789373 195.67756271 924.47238922 C178.35912994 924.48457626 161.04069839 924.4948766 143.72226143 924.49826431 C142.06201099 924.49859366 142.06201099 924.49859366 140.36822014 924.49892966 C138.70418301 924.49925708 138.70418301 924.49925708 137.00652897 924.49959111 C134.75885399 924.50003457 132.51117901 924.50048113 130.26350403 924.50093079 C129.14859911 924.50115222 128.03369419 924.50137365 126.88500427 924.50160179 C108.83636926 924.50554633 90.7877747 924.52299242 72.73915531 924.54629031 C54.17256383 924.57006174 35.60599261 924.5824688 17.03938568 924.58363223 C6.62963458 924.58454575 -3.78006378 924.5902163 -14.18980026 924.60845184 C-23.05691308 924.62393125 -31.92395686 924.62892742 -40.79108064 924.62071374 C-45.30623567 924.61683476 -49.82125201 924.61760032 -54.33638954 924.63177109 C-105.5156218 924.78278297 -150.07782135 914.52381773 -187.51481628 877.73677063 C-203.29436762 861.70801267 -214.40962226 840.61270936 -220.96794128 819.26069641 C-221.19610535 818.52367493 -221.42426941 817.78665344 -221.65934753 817.02729797 C-227.79967874 796.73788928 -229.43916392 776.21293092 -229.26091003 755.10835266 C-229.25529108 753.10098595 -229.25103193 751.09361503 -229.24804688 749.08624268 C-229.23677858 743.88979539 -229.20747469 738.69361352 -229.17393494 733.49726868 C-229.14283738 728.1599842 -229.12945817 722.8226554 -229.11442566 717.48530579 C-229.08258108 707.07698822 -229.0316132 696.66886467 -228.96794128 686.26069641 C-228.12708687 686.26009932 -227.28623246 686.25950223 -226.41989762 686.25888705 C-176.59216074 686.22299886 -126.76448427 686.16636872 -76.9368034 686.08277546 C-70.95491406 686.07275791 -64.97302445 686.0629138 -58.99113464 686.05317688 C-57.20479289 686.05026482 -57.20479289 686.05026482 -55.38236343 686.04729393 C-36.09556462 686.01626663 -16.80877772 685.99929123 2.47804134 685.98750219 C22.26576593 685.97509443 42.05342802 685.94760147 61.84111315 685.90608335 C74.0527317 685.88093728 86.26424661 685.86757995 98.47589142 685.86926684 C106.84807421 685.86929658 115.22015138 685.85468317 123.59229302 685.82853213 C128.42373475 685.81387388 133.25495986 685.80569384 138.08642006 685.81489372 C142.51141883 685.82317709 146.93598226 685.81303557 151.36091644 685.78835979 C152.95997967 685.78267333 154.55908412 685.78369604 156.15813493 685.79218397 C167.96641085 685.84948308 176.50702575 684.42766683 185.31330872 676.16304016 C192.82446941 667.84955093 194.67731584 655.24971609 194.37971497 644.43257141 C193.11916735 632.93184489 187.08723178 624.52953428 178.5349884 617.16108704 C173.56660781 613.38876217 168.0190886 610.56880258 162.53205872 607.63569641 C161.23850957 606.93446773 159.94546658 606.2323046 158.65290833 605.5292511 C155.39789068 603.76154631 152.13687336 602.00525329 148.8740387 600.25202942 C146.10110125 598.75966552 143.33416489 597.25631335 140.56721497 595.75288391 C136.61676898 593.60726204 132.66363937 591.46674435 128.70783997 589.33100891 C124.11870368 586.85170362 119.53901834 584.35560617 114.96296692 581.85224915 C101.63257623 574.56004836 88.23785045 567.38919068 74.83784485 560.22608948 C69.48497381 557.36438593 64.13316895 554.50069101 58.78205872 551.63569641 C58.19865723 551.32337067 57.61525574 551.01104492 57.01417542 550.68925476 C49.0079142 546.4021178 41.01446714 542.09206574 33.03205872 537.76069641 C14.86903197 527.9086626 -3.32493843 518.1225987 -21.66740417 508.60810852 C-29.06738379 504.75835953 -36.3891146 500.77598217 -43.69987488 496.75996399 C-50.24576135 493.17403278 -56.84126432 489.69476382 -63.46794128 486.26069641 C-71.94021005 481.87020896 -80.33733411 477.3609314 -88.69621277 472.75849915 C-94.29615175 469.68550203 -99.93941584 466.7182858 -105.62687683 463.81074524 C-122.21012519 455.31484578 -138.46633191 446.03550744 -152.96794128 434.26069641 C-153.47164246 433.85174133 -153.97534363 433.44278625 -154.49430847 433.0214386 C-166.13732142 423.50833225 -177.68927511 413.68003648 -186.96403503 401.79194641 C-188.84718217 399.41323424 -190.83052684 397.22173844 -192.90544128 395.01069641 C-227.68485154 356.15988694 -241.71416006 297.93234359 -241.40544128 247.13569641 C-241.4023999 246.0673053 -241.39935852 244.99891418 -241.39622498 243.89814758 C-241.32551227 227.04903811 -240.46426683 210.79358577 -236.96794128 194.26069641 C-236.63850525 192.6558136 -236.63850525 192.6558136 -236.30241394 191.01850891 C-228.73595812 154.94798775 -213.87323818 121.53401636 -189.96794128 93.26069641 C-189.46826843 92.66096008 -188.96859558 92.06122375 -188.45378113 91.4433136 C-177.38372832 78.18407252 -165.61002102 65.89849543 -151.96794128 55.26069641 C-150.90130158 54.3940934 -149.83626994 53.52550838 -148.77262878 52.65522766 C-119.02408364 28.49179021 -83.75800069 12.15493329 -46.28044128 4.51069641 C-44.8222699 4.21256042 -44.8222699 4.21256042 -43.3346405 3.90840149 C-28.89677175 1.1121581 -14.67407548 -0.0392348 0 0 Z " fill="#0B68F5" transform="translate(485.9679412841797,156.7393035888672)"/>
<path d="M0 0 C1.6365402 -0.00302963 3.27307899 -0.00692312 4.90961534 -0.01159257 C9.35518265 -0.02177704 13.80066846 -0.01971544 18.24624217 -0.01541197 C23.06100537 -0.01292716 27.87574982 -0.02198056 32.69050598 -0.02944946 C42.10371304 -0.04215045 51.51689152 -0.04399589 60.93010571 -0.0416492 C68.58826738 -0.03986057 76.24642043 -0.04162732 83.90458107 -0.04587364 C85.54432584 -0.04676643 85.54432584 -0.04676643 87.21719677 -0.04767724 C89.4385336 -0.0488891 91.65987043 -0.05010323 93.88120726 -0.05131962 C114.67878112 -0.06217762 135.47633872 -0.06004103 156.27391348 -0.05393478 C175.25987876 -0.04876821 194.2457927 -0.06001731 213.23174783 -0.07903299 C232.77031151 -0.0984507 252.30885095 -0.10666044 271.84742433 -0.10290974 C282.79924193 -0.10100353 293.75101586 -0.10342842 304.70282555 -0.11762428 C314.02729349 -0.12958937 323.35169087 -0.13088592 332.67615988 -0.11883412 C337.42424912 -0.11298098 342.17220964 -0.11174601 346.92028999 -0.12383652 C372.75273956 -0.18489036 396.93969403 -0.14020483 421.03205872 10.26069641 C422.12792297 10.71919983 422.12792297 10.71919983 423.2459259 11.18696594 C439.64926964 18.10540797 453.33816286 27.86416854 466.03205872 40.26069641 C467.2134845 41.34930969 467.2134845 41.34930969 468.41877747 42.45991516 C494.42247009 67.01139459 504.41230359 101.87302275 508.03205872 136.26069641 C508.03205872 167.94069641 508.03205872 199.62069641 508.03205872 232.26069641 C318.94205872 232.75569641 318.94205872 232.75569641 126.03205872 233.26069641 C126.03205872 232.60069641 126.03205872 231.94069641 126.03205872 231.26069641 C73.78780638 231.12199987 21.54285465 231.22558614 -30.70082664 231.49802113 C-39.06748306 231.5415149 -47.43409722 231.58051998 -55.80082703 231.6068573 C-63.02989281 231.62971516 -70.25882109 231.66308177 -77.4877767 231.70929766 C-81.22507115 231.73291539 -84.96223511 231.75194672 -88.69960213 231.75832748 C-114.73132658 231.80246215 -114.73132658 231.80246215 -139.84294128 238.13569641 C-140.55289246 238.3976178 -141.26284363 238.65953918 -141.99430847 238.92939758 C-157.00937569 244.57633869 -169.40138771 253.19270118 -180.96794128 264.26069641 C-181.99661316 265.19462219 -181.99661316 265.19462219 -183.04606628 266.14741516 C-197.90032411 280.09521237 -209.33857725 302.0952311 -210.20622253 322.67475891 C-210.89487753 354.47893723 -199.02397119 384.44321996 -177.96794128 408.26069641 C-176.97794128 408.92069641 -175.98794128 409.58069641 -174.96794128 410.26069641 C-175.29794128 411.58069641 -175.62794128 412.90069641 -175.96794128 414.26069641 C-219.15838512 368.00252012 -241.7910298 310.58050584 -241.40544128 247.13569641 C-241.4023999 246.0673053 -241.39935852 244.99891418 -241.39622498 243.89814758 C-241.32551227 227.04903811 -240.46426683 210.79358577 -236.96794128 194.26069641 C-236.63850525 192.6558136 -236.63850525 192.6558136 -236.30241394 191.01850891 C-228.73595812 154.94798775 -213.87323818 121.53401636 -189.96794128 93.26069641 C-189.46826843 92.66096008 -188.96859558 92.06122375 -188.45378113 91.4433136 C-177.38372832 78.18407252 -165.61002102 65.89849543 -151.96794128 55.26069641 C-150.90130158 54.3940934 -149.83626994 53.52550838 -148.77262878 52.65522766 C-119.02408364 28.49179021 -83.75800069 12.15493329 -46.28044128 4.51069641 C-44.8222699 4.21256042 -44.8222699 4.21256042 -43.3346405 3.90840149 C-28.89677175 1.1121581 -14.67407548 -0.0392348 0 0 Z " fill="#1978FD" transform="translate(485.9679412841797,156.7393035888672)"/>
<path d="M0 0 C2.7237106 1.35117408 5.42329458 2.73962591 8.109375 4.1640625 C8.86347656 4.56367187 9.61757813 4.96328125 10.39453125 5.375 C11.17183594 5.7875 11.94914063 6.2 12.75 6.625 C13.93916016 7.25535156 13.93916016 7.25535156 15.15234375 7.8984375 C17.10178365 8.93187552 19.05099451 9.96574301 21 11 C21 11.66 21 12.32 21 13 C20.278125 12.690625 19.55625 12.38125 18.8125 12.0625 C16.19207305 11.07256093 13.74450501 10.51200009 11 10 C11.47690204 11.62566606 11.95659666 13.25051311 12.4375 14.875 C12.70433594 15.77992188 12.97117187 16.68484375 13.24609375 17.6171875 C13.92613826 19.98275381 13.92613826 19.98275381 15 22 C14.67 22.99 14.34 23.98 14 25 C14.66 25 15.32 25 16 25 C16.08097324 27.27024968 16.13917704 29.54132075 16.1875 31.8125 C16.23970703 33.70935547 16.23970703 33.70935547 16.29296875 35.64453125 C15.97281403 39.31137002 15.61583019 39.72208559 13 42 C12.97421875 40.75605469 12.9484375 39.51210938 12.921875 38.23046875 C12.54898584 25.82535669 11.59771922 15.62627978 3.3671875 5.75390625 C1.94220147 3.92585274 0.96911208 2.09974284 0 0 Z " fill="#1031AC" transform="translate(668,775)"/>
<path d="M0 0 C0.33 0.66 0.66 1.32 1 2 C2.32 1.67 3.64 1.34 5 1 C5.68964844 2.09957031 6.37929688 3.19914063 7.08984375 4.33203125 C15.24294267 18.97227207 15.24294267 18.97227207 27 30 C26.67 31.32 26.34 32.64 26 34 C19.04535706 26.55138242 12.32856473 18.99655853 6 11 C5.37609375 10.22140625 4.7521875 9.4428125 4.109375 8.640625 C3.55765625 7.93421875 3.0059375 7.2278125 2.4375 6.5 C1.96183594 5.8915625 1.48617188 5.283125 0.99609375 4.65625 C0 3 0 3 0 0 Z " fill="#1E75F7" transform="translate(284,537)"/>
<path d="M0 0 C0.33 0 0.66 0 1 0 C2.65788072 7.23438861 0.86967197 11.72807406 -2.75 18.0625 C-7.33695386 24.05102309 -12.10782823 28.80917974 -19 32 C-21.9375 32.25 -21.9375 32.25 -24 32 C-21.66232161 30.44154774 -19.84093666 29.49913567 -17.3125 28.4375 C-10.05771137 24.8034254 -5.39698848 18.82338283 -2.5625 11.3125 C-1.37213694 7.57885021 -0.42245281 3.90768849 0 0 Z " fill="#2559CE" transform="translate(680,811)"/>
<path d="M0 0 C0 0.99 0 1.98 0 3 C-0.61875 3.2475 -1.2375 3.495 -1.875 3.75 C-4.10015254 4.78746106 -4.10015254 4.78746106 -4.796875 6.72265625 C-6.46554139 9.88120335 -8.86575442 12.19476261 -11.375 14.6875 C-11.85710937 15.18572266 -12.33921875 15.68394531 -12.8359375 16.19726562 C-15.39323992 18.75804264 -17.31046316 20.62405193 -21 21 C-17.16833022 16.31684804 -13.08004196 11.97047611 -8.8125 7.6875 C-8.28946289 7.15995117 -7.76642578 6.63240234 -7.22753906 6.08886719 C-4.91131763 3.78157146 -2.72981566 1.81987711 0 0 Z " fill="#2A84FC" transform="translate(326,219)"/>
<path d="M0 0 C4.20240011 3.71750779 6.99782679 8.31660979 10 13 C9.67 13.66 9.34 14.32 9 15 C8.01 15 7.02 15 6 15 C6 14.34 6 13.68 6 13 C5.34 13 4.68 13 4 13 C3.525625 11.865625 3.05125 10.73125 2.5625 9.5625 C1.36377917 6.24259834 1.36377917 6.24259834 0 5 C-0.04063832 3.33382885 -0.042721 1.66611905 0 0 Z " fill="#1B73FA" transform="translate(962,691)"/>
<path d="M0 0 C9.24 0 18.48 0 28 0 C28 0.66 28 1.32 28 2 C23.56923077 4.09230769 23.56923077 4.09230769 20.6875 3.625 C20.130625 3.41875 19.57375 3.2125 19 3 C19.33 2.34 19.66 1.68 20 1 C18.741875 1.185625 17.48375 1.37125 16.1875 1.5625 C10.70402149 2.19117906 5.45851821 1.66318446 0 1 C0 0.67 0 0.34 0 0 Z " fill="#0654E6" transform="translate(584,388)"/>
<path d="M0 0 C-4.22054039 2.29343691 -8.30303435 2.92593129 -13 3.6875 C-13.80695312 3.82994141 -14.61390625 3.97238281 -15.4453125 4.11914062 C-16.22648438 4.24869141 -17.00765625 4.37824219 -17.8125 4.51171875 C-18.52019531 4.62990967 -19.22789062 4.74810059 -19.95703125 4.86987305 C-22.18387233 5.01171175 -23.87622854 4.64816789 -26 4 C-26 3.34 -26 2.68 -26 2 C-24.1746875 2.0309375 -24.1746875 2.0309375 -22.3125 2.0625 C-19.06721163 2.07398775 -16.18058614 1.65482656 -13 1 C-12.34 1.33 -11.68 1.66 -11 2 C-11 1.34 -11 0.68 -11 0 C-3.375 -1.125 -3.375 -1.125 0 0 Z " fill="#1979FC" transform="translate(811,1075)"/>
<path d="M0 0 C3.33333333 1.66666667 6.66666667 3.33333333 10 5 C9.42655063 7.86724686 9.1385485 8.8614515 7 11 C6.401875 10.071875 5.80375 9.14375 5.1875 8.1875 C3.22220454 5.11550825 3.22220454 5.11550825 1.25 3.25 C0.8375 2.8375 0.425 2.425 0 2 C0 1.34 0 0.68 0 0 Z " fill="#183AB6" transform="translate(668,775)"/>
<path d="M0 0 C4.49797113 1.68673918 8.72886302 3.81673892 13 6 C12.01 6.66 11.02 7.32 10 8 C6.04 6.02 2.08 4.04 -2 2 C-1.34 1.34 -0.68 0.68 0 0 Z " fill="#2882FC" transform="translate(531,698)"/>
<path d="M0 0 C4.95 2.31 9.9 4.62 15 7 C15 7.66 15 8.32 15 9 C9.39356295 7.35544513 4.60506555 5.66043672 0 2 C0 1.34 0 0.68 0 0 Z " fill="#0E73FD" transform="translate(714,536)"/>
<path d="M0 0 C5.11476819 -0.63934602 8.67254378 1.59466453 13 4 C13 4.99 13 5.98 13 7 C8.1725201 5.58707905 4.2837641 3.57025846 0 1 C0 0.67 0 0.34 0 0 Z " fill="#2D82FC" transform="translate(587,730)"/>
<path d="M0 0 C4.49797113 1.68673918 8.72886302 3.81673892 13 6 C13 6.66 13 7.32 13 8 C8.0276578 6.50829734 3.58154261 4.39542583 -1 2 C-0.67 1.34 -0.34 0.68 0 0 Z " fill="#1278FD" transform="translate(700,529)"/>
<path d="M0 0 C4.64474974 -0.32405231 7.29105728 0.11526677 11 3 C12.3125 5.1875 12.3125 5.1875 13 7 C8.50202887 5.31326082 4.27113698 3.18326108 0 1 C0 0.67 0 0.34 0 0 Z " fill="#2C83FC" transform="translate(559,715)"/>
<path d="M0 0 C3.54243452 1.36591169 6.92627929 2.90931484 10.3125 4.625 C11.63701172 5.29402344 11.63701172 5.29402344 12.98828125 5.9765625 C13.65214844 6.31429687 14.31601562 6.65203125 15 7 C14.01 7.66 13.02 8.32 12 9 C11.34 8.67 10.68 8.34 10 8 C10 7.34 10 6.68 10 6 C6.7 5.01 3.4 4.02 0 3 C0 2.01 0 1.02 0 0 Z " fill="#2182FD" transform="translate(768,563)"/>
<path d="M0 0 C4.23429756 1.31061591 8.07407404 2.94356259 12 5 C12 5.66 12 6.32 12 7 C11.278125 6.690625 10.55625 6.38125 9.8125 6.0625 C7.17505085 5.06613032 4.79060057 4.37710819 2 4 C1.01 4.495 1.01 4.495 0 5 C0 3.35 0 1.7 0 0 Z " fill="#0328A0" transform="translate(677,781)"/>
<path d="M0 0 C4.85963179 0.60745397 8.7405518 2.72758967 13 5 C12.67 5.66 12.34 6.32 12 7 C1.49090909 2.98181818 1.49090909 2.98181818 0 0 Z " fill="#1676FD" transform="translate(659,509)"/>
<path d="M0 0 C0.33 0 0.66 0 1 0 C1.33 4.62 1.66 9.24 2 14 C1.01 14.66 0.02 15.32 -1 16 C-0.67 10.72 -0.34 5.44 0 0 Z " fill="#4C98FC" transform="translate(246,371)"/>
<path d="M0 0 C0.33 0 0.66 0 1 0 C1 2.31 1 4.62 1 7 C1.66 7.33 2.32 7.66 3 8 C2.25 12.75 2.25 12.75 0 15 C0 10.05 0 5.1 0 0 Z " fill="#1940BE" transform="translate(681,802)"/>
<path d="M0 0 C3.63 1.65 7.26 3.3 11 5 C10.34 5.66 9.68 6.32 9 7 C7.68176698 6.40844669 6.37052949 5.80128537 5.0625 5.1875 C4.33160156 4.85105469 3.60070312 4.51460937 2.84765625 4.16796875 C1 3 1 3 0 0 Z " fill="#1378FD" transform="translate(730,544)"/>
<path d="M0 0 C7.50769231 0.61538462 7.50769231 0.61538462 10 2.5625 C10.33 3.036875 10.66 3.51125 11 4 C8 5 8 5 5.95703125 4.22265625 C5.24933594 3.83980469 4.54164063 3.45695313 3.8125 3.0625 C3.09707031 2.68222656 2.38164063 2.30195312 1.64453125 1.91015625 C1.10183594 1.60980469 0.55914063 1.30945313 0 1 C0 0.67 0 0.34 0 0 Z " fill="#2A81FC" transform="translate(542,706)"/>
<path d="M0 0 C5.66710699 1.31793186 7.66437233 3.48709197 11 8 C10.67 8.66 10.34 9.32 10 10 C6.66666667 6.66666667 3.33333333 3.33333333 0 0 Z " fill="#1B68F1" transform="translate(313,573)"/>
<path d="M0 0 C0.33 0.66 0.66 1.32 1 2 C3.02463255 2.65213292 3.02463255 2.65213292 5 3 C5.66666667 5.66666667 6.33333333 8.33333333 7 11 C4.35247996 8.42215154 2.05567935 6.08351902 0 3 C0 2.01 0 1.02 0 0 Z " fill="#3173EA" transform="translate(284,537)"/>
<path d="M0 0 C3.63 1.65 7.26 3.3 11 5 C11 5.66 11 6.32 11 7 C6.96678237 5.78065514 3.45730521 4.44045073 0 2 C0 1.34 0 0.68 0 0 Z " fill="#1F82FD" transform="translate(859,609)"/>
<path d="M0 0 C3.63 1.65 7.26 3.3 11 5 C7.59068103 6.13643966 6.99664544 5.86747764 3.8125 4.5625 C3.09707031 4.27503906 2.38164063 3.98757813 1.64453125 3.69140625 C1.10183594 3.46324219 0.55914063 3.23507812 0 3 C0 2.01 0 1.02 0 0 Z " fill="#1377FD" transform="translate(752,555)"/>
<path d="M0 0 C0.66 0 1.32 0 2 0 C0.25 7.625 0.25 7.625 -2 11 C-3 8 -3 8 -2 5 C-1.34 5 -0.68 5 0 5 C-0.2784375 4.0409375 -0.2784375 4.0409375 -0.5625 3.0625 C-0.706875 2.381875 -0.85125 1.70125 -1 1 C-0.67 0.67 -0.34 0.34 0 0 Z " fill="#237DFD" transform="translate(994,888)"/>
<path d="M0 0 C0.33 0 0.66 0 1 0 C0.67 5.61 0.34 11.22 0 17 C-0.33 17 -0.66 17 -1 17 C-1.22354607 15.10590022 -1.42819951 13.2095652 -1.625 11.3125 C-1.74101563 10.25675781 -1.85703125 9.20101563 -1.9765625 8.11328125 C-2.0010326 4.86283654 -1.40852563 2.89769204 0 0 Z " fill="#0156EE" transform="translate(575,424)"/>
<path d="M0 0 C-0.33 0.99 -0.66 1.98 -1 3 C-3.875 3.625 -3.875 3.625 -7 4 C-7.66 3.34 -8.32 2.68 -9 2 C-3.375 0 -3.375 0 0 0 Z " fill="#4292FD" transform="translate(413,169)"/>
<path d="M0 0 C0 0.99 0 1.98 0 3 C-1.98 3.99 -3.96 4.98 -6 6 C-6.66 5.34 -7.32 4.68 -8 4 C-5.36 2.68 -2.72 1.36 0 0 Z " fill="#3088FD" transform="translate(378,183)"/>
<path d="M0 0 C0.66 0.99 1.32 1.98 2 3 C0.68 5.31 -0.64 7.62 -2 10 C-2.66 10 -3.32 10 -4 10 C-2.8905928 6.51329166 -1.73662334 3.22515763 0 0 Z " fill="#D6EBFE" transform="translate(976,941)"/>
<path d="M0 0 C2.4375 0.6875 2.4375 0.6875 5 2 C5.8125 4.625 5.8125 4.625 6 7 C1.125 3.375 1.125 3.375 0 0 Z " fill="#2B76F0" transform="translate(305,564)"/>
</svg>
